<svg width="82" height="49" viewBox="0 0 82 49" fill="none" xmlns="http://www.w3.org/2000/svg">
<path d="M56.4177 34.1813C56.2481 33.7709 42.1582 6.05954 41.9303 5.68066C41.1881 3.91778 39.8894 2.3654 38.0977 1.32872C33.7191 -1.21824 28.0949 0.239424 25.5292 4.5861C23.7693 7.56457 23.9071 11.1324 25.5822 13.9004C25.7519 14.3109 39.2374 40.8329 39.4653 41.2171C39.635 41.6275 39.8364 42.0222 40.0696 42.4063C40.8118 44.1692 42.1105 45.7216 43.9022 46.7635C48.2808 49.3105 53.9051 47.8528 56.4707 43.5062C58.2306 40.5277 58.0928 36.9598 56.4177 34.1919V34.1813Z" fill="url(#paint0_linear_9_20)"/>
<path d="M40.1492 15.4263C41.6918 13.795 42.6353 11.6006 42.6353 9.19045C42.6406 4.15442 38.5271 0.0708618 33.4541 0.0708618C30.3319 0.0708618 27.5807 1.61798 25.9162 3.9755C25.6141 4.2965 2.74058 32.2815 2.48613 32.6393C0.943564 34.2706 0 36.465 0 38.8752C0 43.9112 4.11352 47.9948 9.1865 47.9948C12.3087 47.9948 15.0599 46.4476 16.7191 44.0901C17.0213 43.7691 39.8947 15.7841 40.1492 15.4263V15.4263Z" fill="url(#paint1_linear_9_20)"/>
<path d="M79.5139 15.4263C81.0564 13.795 82 11.6006 82 9.19045C82 4.15442 77.8865 0.0708618 72.8135 0.0708618C69.6912 0.0708618 66.9401 1.61798 65.2756 3.9755C64.9734 4.2965 42.1 32.2815 41.8455 32.6393C40.3029 34.2706 39.3594 36.465 39.3594 38.8752C39.3594 43.9112 43.4729 47.9948 48.5459 47.9948C51.6681 47.9948 54.4193 46.4476 56.0785 44.0901C56.3806 43.7691 79.2541 15.7841 79.5086 15.4263H79.5139Z" fill="url(#paint2_linear_9_20)"/>
<defs>
<linearGradient id="paint0_linear_9_20" x1="15.2519" y1="-28.0735" x2="76.2698" y2="27.7588" gradientUnits="userSpaceOnUse">
<stop stop-color="#7756DB"/>
<stop offset="0.760417" stop-color="#3BF4DE"/>
</linearGradient>
<linearGradient id="paint1_linear_9_20" x1="-11.4844" y1="-28.0675" x2="49.0355" y2="42.5063" gradientUnits="userSpaceOnUse">
<stop stop-color="#7756DB"/>
<stop offset="0.760417" stop-color="#3BF4DE"/>
</linearGradient>
<linearGradient id="paint2_linear_9_20" x1="27.8736" y1="-28.0675" x2="88.3923" y2="42.5138" gradientUnits="userSpaceOnUse">
<stop stop-color="#7756DB"/>
<stop offset="0.760417" stop-color="#3BF4DE"/>
</linearGradient>
</defs>
</svg>
